<svg xmlns="http://www.w3.org/2000/svg" width="1024" height="1024" viewBox="0 0 1024 1024">
<g fill="white" stroke="none">
<path d="M 462 968 Z"/>
<path d="M 457 968 Z"/>
<path d="M 459 967 L 460 967 Z"/>
<path d="M 536 944 L 536 945 L 537 944 Z"/>
<path d="M 578 884 Z"/>
<path d="M 315 384 Z"/>
<path d="M 955 240 Z"/>
<path d="M 583 0 L 583 1 L 582 2 L 581 2 L 579 4 L 580 5 L 578 7 L 577 6 L 579 8 L 577 10 L 576 9 L 577 10 L 576 11 L 576 12 L 574 14 L 574 15 L 569 20 L 569 21 L 562 28 L 562 29 L 560 31 L 559 31 L 556 34 L 556 35 L 555 36 L 554 36 L 552 38 L 552 39 L 551 40 L 550 40 L 550 41 L 549 42 L 547 42 L 547 43 L 538 52 L 538 53 L 532 59 L 531 59 L 531 60 L 530 61 L 529 61 L 528 62 L 528 63 L 527 64 L 527 65 L 526 66 L 525 66 L 524 67 L 524 68 L 523 69 L 522 69 L 521 70 L 521 71 L 515 77 L 515 78 L 512 81 L 512 82 L 510 84 L 510 85 L 509 86 L 508 86 L 508 87 L 507 88 L 507 89 L 506 90 L 505 90 L 505 91 L 504 92 L 504 93 L 498 99 L 499 100 L 498 101 L 497 101 L 497 102 L 496 103 L 496 104 L 495 105 L 495 106 L 492 109 L 492 110 L 491 111 L 491 113 L 489 115 L 489 117 L 486 120 L 486 122 L 484 124 L 485 125 L 482 128 L 482 130 L 481 131 L 481 134 L 480 135 L 480 136 L 479 137 L 479 138 L 478 139 L 478 141 L 477 142 L 477 144 L 476 145 L 476 148 L 475 149 L 475 150 L 474 151 L 474 152 L 473 153 L 473 154 L 472 155 L 472 158 L 471 159 L 472 160 L 471 161 L 471 165 L 470 166 L 470 172 L 469 173 L 469 176 L 468 177 L 468 181 L 467 182 L 467 183 L 466 184 L 466 191 L 465 192 L 465 193 L 466 194 L 465 195 L 465 198 L 466 199 L 466 205 L 465 206 L 466 207 L 466 215 L 467 216 L 467 218 L 466 219 L 467 220 L 467 228 L 468 229 L 468 231 L 467 232 L 467 235 L 468 236 L 468 239 L 469 240 L 469 250 L 470 251 L 469 252 L 470 253 L 470 255 L 471 256 L 471 259 L 472 260 L 471 261 L 471 263 L 472 264 L 472 265 L 471 266 L 471 268 L 470 269 L 471 270 L 471 274 L 470 275 L 469 275 L 470 276 L 470 277 L 469 278 L 469 281 L 468 282 L 469 283 L 468 284 L 468 285 L 467 286 L 467 287 L 466 288 L 465 288 L 466 289 L 466 290 L 464 292 L 463 292 L 462 293 L 462 294 L 460 296 L 460 297 L 459 298 L 458 298 L 458 300 L 455 303 L 454 303 L 451 306 L 450 306 L 450 307 L 449 308 L 448 308 L 447 309 L 446 309 L 446 310 L 445 311 L 444 311 L 443 312 L 443 313 L 442 314 L 441 314 L 439 316 L 438 316 L 437 317 L 436 317 L 436 318 L 435 319 L 434 319 L 429 324 L 427 324 L 424 327 L 424 328 L 423 329 L 422 329 L 420 331 L 419 331 L 416 334 L 415 334 L 415 335 L 412 338 L 411 338 L 410 339 L 410 340 L 409 341 L 408 341 L 404 345 L 403 345 L 402 346 L 401 346 L 396 351 L 394 351 L 393 352 L 393 353 L 391 355 L 390 355 L 390 356 L 389 357 L 387 357 L 386 358 L 385 358 L 384 359 L 384 360 L 382 362 L 381 362 L 380 363 L 379 363 L 378 362 L 375 365 L 374 365 L 373 366 L 372 366 L 371 367 L 368 367 L 368 368 L 367 369 L 366 369 L 365 370 L 362 370 L 361 371 L 358 371 L 357 372 L 356 371 L 355 372 L 354 372 L 353 373 L 352 373 L 351 372 L 349 372 L 348 373 L 345 373 L 344 374 L 337 374 L 336 375 L 334 375 L 333 376 L 329 376 L 326 379 L 325 378 L 325 380 L 324 381 L 319 381 L 318 382 L 318 384 L 317 385 L 317 386 L 316 387 L 316 388 L 315 389 L 315 390 L 314 391 L 314 393 L 313 394 L 312 393 L 312 392 L 311 391 L 311 394 L 310 395 L 310 396 L 309 397 L 309 399 L 310 399 L 311 400 L 311 402 L 310 403 L 310 405 L 309 406 L 309 407 L 312 410 L 311 411 L 310 411 L 309 410 L 308 410 L 309 411 L 309 412 L 310 413 L 310 422 L 311 423 L 310 424 L 311 425 L 310 426 L 311 427 L 311 431 L 312 432 L 311 433 L 311 436 L 312 437 L 312 438 L 311 439 L 312 440 L 311 441 L 311 444 L 310 445 L 310 450 L 309 451 L 309 453 L 308 454 L 308 456 L 307 457 L 307 460 L 306 461 L 306 463 L 305 464 L 304 464 L 305 465 L 304 466 L 304 467 L 303 468 L 303 469 L 302 470 L 302 472 L 301 473 L 300 473 L 300 475 L 299 476 L 299 477 L 298 478 L 298 480 L 297 481 L 297 482 L 295 484 L 295 485 L 294 486 L 294 487 L 292 489 L 292 490 L 290 492 L 290 493 L 288 495 L 289 496 L 286 499 L 286 501 L 284 503 L 284 504 L 283 505 L 283 506 L 282 507 L 282 508 L 280 510 L 279 509 L 279 510 L 278 511 L 278 512 L 276 514 L 276 515 L 273 518 L 273 519 L 270 522 L 270 523 L 267 526 L 267 527 L 266 528 L 266 529 L 264 531 L 263 531 L 263 532 L 261 534 L 261 535 L 260 536 L 259 536 L 259 537 L 258 538 L 258 539 L 257 540 L 256 540 L 255 541 L 255 542 L 253 544 L 252 544 L 250 546 L 250 547 L 249 548 L 248 548 L 247 549 L 247 550 L 246 551 L 245 551 L 245 552 L 242 555 L 241 555 L 239 557 L 238 557 L 236 559 L 236 560 L 232 564 L 231 564 L 231 565 L 229 567 L 228 566 L 228 567 L 226 569 L 225 569 L 224 570 L 223 570 L 220 573 L 219 573 L 218 574 L 218 575 L 217 576 L 214 576 L 214 577 L 213 578 L 212 577 L 210 579 L 209 579 L 208 580 L 207 580 L 205 582 L 202 582 L 201 583 L 200 583 L 199 584 L 198 584 L 197 585 L 196 585 L 195 586 L 194 586 L 193 587 L 192 587 L 191 586 L 190 586 L 189 587 L 187 587 L 186 588 L 185 587 L 184 587 L 183 588 L 182 588 L 181 587 L 181 588 L 180 589 L 179 588 L 175 588 L 174 587 L 173 588 L 172 588 L 171 587 L 170 588 L 169 588 L 168 587 L 156 587 L 155 586 L 149 586 L 148 585 L 147 586 L 144 586 L 143 585 L 142 586 L 141 585 L 138 585 L 137 586 L 128 586 L 127 587 L 124 587 L 123 588 L 119 588 L 118 589 L 116 589 L 115 590 L 113 590 L 112 591 L 110 591 L 111 592 L 110 593 L 109 593 L 108 594 L 107 594 L 106 595 L 103 595 L 102 596 L 101 596 L 98 599 L 98 600 L 97 601 L 96 601 L 94 603 L 93 603 L 91 605 L 91 606 L 89 608 L 88 608 L 82 614 L 82 615 L 80 617 L 80 618 L 79 619 L 79 620 L 77 622 L 77 623 L 76 624 L 76 625 L 75 626 L 75 627 L 74 628 L 74 629 L 73 630 L 73 631 L 72 632 L 72 634 L 71 635 L 71 637 L 70 638 L 70 642 L 69 643 L 69 659 L 70 660 L 70 667 L 71 668 L 70 669 L 71 670 L 71 671 L 72 672 L 72 674 L 73 675 L 73 677 L 74 678 L 74 679 L 76 681 L 75 682 L 77 684 L 77 685 L 78 686 L 78 687 L 79 688 L 79 689 L 80 690 L 80 691 L 81 692 L 81 693 L 84 696 L 84 697 L 87 700 L 88 700 L 89 701 L 89 702 L 90 703 L 92 703 L 93 704 L 93 705 L 96 708 L 97 708 L 98 709 L 98 710 L 100 710 L 103 713 L 105 713 L 106 714 L 106 715 L 107 715 L 108 716 L 109 716 L 110 717 L 111 717 L 112 718 L 113 718 L 114 719 L 118 719 L 119 720 L 120 720 L 121 721 L 122 721 L 123 722 L 126 722 L 127 723 L 129 723 L 130 724 L 135 724 L 136 725 L 137 725 L 138 726 L 140 726 L 141 725 L 142 726 L 143 726 L 144 727 L 169 727 L 170 726 L 171 727 L 172 726 L 177 726 L 178 725 L 188 725 L 189 724 L 190 725 L 191 724 L 192 724 L 193 723 L 194 724 L 196 724 L 197 723 L 199 723 L 200 722 L 207 722 L 208 721 L 209 721 L 210 722 L 211 722 L 212 721 L 214 721 L 215 722 L 216 721 L 221 721 L 222 722 L 223 721 L 224 722 L 225 721 L 227 721 L 228 722 L 229 721 L 230 722 L 231 722 L 232 721 L 233 721 L 234 722 L 234 723 L 236 723 L 237 722 L 238 723 L 241 723 L 242 724 L 243 724 L 244 723 L 245 723 L 246 724 L 246 725 L 247 725 L 247 722 L 246 722 L 245 721 L 245 720 L 246 719 L 247 720 L 248 720 L 249 721 L 250 721 L 251 722 L 253 722 L 254 723 L 253 724 L 250 724 L 249 725 L 251 725 L 253 727 L 252 728 L 250 728 L 251 728 L 252 729 L 253 729 L 254 730 L 257 730 L 259 732 L 261 732 L 262 733 L 264 733 L 265 734 L 266 734 L 267 735 L 267 736 L 270 736 L 271 737 L 272 737 L 273 738 L 275 738 L 276 739 L 277 739 L 278 740 L 279 740 L 280 741 L 282 741 L 283 742 L 286 742 L 288 744 L 289 744 L 290 745 L 294 745 L 295 746 L 296 746 L 297 747 L 301 747 L 302 748 L 304 748 L 305 749 L 306 749 L 307 750 L 312 750 L 313 751 L 318 751 L 320 753 L 321 752 L 322 753 L 323 753 L 324 754 L 327 754 L 328 755 L 331 755 L 332 756 L 336 756 L 337 757 L 338 757 L 339 758 L 344 758 L 345 759 L 348 759 L 349 760 L 351 760 L 352 761 L 353 760 L 354 761 L 357 761 L 358 762 L 359 762 L 360 763 L 361 763 L 362 764 L 365 764 L 366 765 L 368 765 L 369 766 L 370 765 L 371 765 L 372 766 L 374 766 L 376 768 L 377 768 L 378 769 L 380 769 L 381 770 L 383 770 L 384 771 L 385 770 L 387 772 L 388 772 L 389 773 L 390 773 L 391 774 L 394 774 L 395 775 L 394 776 L 395 776 L 396 777 L 397 776 L 398 777 L 398 778 L 399 778 L 400 779 L 402 779 L 404 781 L 404 782 L 407 785 L 407 786 L 408 785 L 410 787 L 410 789 L 412 791 L 411 792 L 411 793 L 412 794 L 412 796 L 413 797 L 413 798 L 414 799 L 414 800 L 415 801 L 414 802 L 414 803 L 415 804 L 415 806 L 416 807 L 415 808 L 415 809 L 416 810 L 415 811 L 415 812 L 416 813 L 415 814 L 416 815 L 416 816 L 415 817 L 415 819 L 416 820 L 416 827 L 417 828 L 417 829 L 416 830 L 417 831 L 417 835 L 418 836 L 418 839 L 419 840 L 419 843 L 420 844 L 420 845 L 422 847 L 421 848 L 421 849 L 422 850 L 422 853 L 423 854 L 422 855 L 423 855 L 424 856 L 423 857 L 423 862 L 424 863 L 424 869 L 423 870 L 424 871 L 423 872 L 423 873 L 424 874 L 423 875 L 423 877 L 422 878 L 423 879 L 423 881 L 422 882 L 422 883 L 421 884 L 421 887 L 420 888 L 420 890 L 419 891 L 419 892 L 418 893 L 418 896 L 417 897 L 416 897 L 417 898 L 416 899 L 416 904 L 415 905 L 416 906 L 416 915 L 417 916 L 417 917 L 417 914 L 418 913 L 419 914 L 419 925 L 418 926 L 418 927 L 419 928 L 419 929 L 424 929 L 425 930 L 424 931 L 425 932 L 425 933 L 426 934 L 427 934 L 428 935 L 427 936 L 432 941 L 432 942 L 433 942 L 434 943 L 434 945 L 438 949 L 438 950 L 439 951 L 440 951 L 442 953 L 442 954 L 443 955 L 443 956 L 444 957 L 444 958 L 445 958 L 446 959 L 445 960 L 446 961 L 447 961 L 447 959 L 448 958 L 449 959 L 449 966 L 450 967 L 453 967 L 454 966 L 457 966 L 458 965 L 460 965 L 461 964 L 463 964 L 464 965 L 464 966 L 465 965 L 466 966 L 469 966 L 471 964 L 472 964 L 473 963 L 474 964 L 475 963 L 477 963 L 478 962 L 480 962 L 481 961 L 482 961 L 483 960 L 485 960 L 486 959 L 490 959 L 491 958 L 492 958 L 493 957 L 497 957 L 498 956 L 501 956 L 502 955 L 506 955 L 507 954 L 510 954 L 511 953 L 512 954 L 512 955 L 513 955 L 514 954 L 517 954 L 518 953 L 521 953 L 522 952 L 523 952 L 524 951 L 525 951 L 525 950 L 526 949 L 528 949 L 529 948 L 530 948 L 532 946 L 533 946 L 530 946 L 529 945 L 530 944 L 532 944 L 535 941 L 535 940 L 536 939 L 537 940 L 537 942 L 539 940 L 540 940 L 541 939 L 541 938 L 543 936 L 543 935 L 544 934 L 545 934 L 545 933 L 546 932 L 546 930 L 548 928 L 548 927 L 549 926 L 550 926 L 550 925 L 551 924 L 551 922 L 553 920 L 553 919 L 554 918 L 554 917 L 555 916 L 556 916 L 556 915 L 557 914 L 557 913 L 558 912 L 558 911 L 563 906 L 563 905 L 572 896 L 571 895 L 572 894 L 573 894 L 574 893 L 574 892 L 575 891 L 576 891 L 578 889 L 578 888 L 576 888 L 575 887 L 575 886 L 576 885 L 575 885 L 574 884 L 575 883 L 576 883 L 579 880 L 579 877 L 580 876 L 581 877 L 581 879 L 581 878 L 582 877 L 582 872 L 583 871 L 584 872 L 584 876 L 584 872 L 586 870 L 586 865 L 587 864 L 586 863 L 587 862 L 587 861 L 586 860 L 587 859 L 587 856 L 586 855 L 586 853 L 585 852 L 586 851 L 585 850 L 585 846 L 584 845 L 584 831 L 585 830 L 584 829 L 584 828 L 585 827 L 584 826 L 585 825 L 585 824 L 586 823 L 586 821 L 587 820 L 587 818 L 588 817 L 588 815 L 589 814 L 588 813 L 589 812 L 589 811 L 590 810 L 590 807 L 591 806 L 592 807 L 593 806 L 593 803 L 594 802 L 594 801 L 595 800 L 595 798 L 596 797 L 596 795 L 597 794 L 597 791 L 598 790 L 598 785 L 599 784 L 598 783 L 598 780 L 599 779 L 600 779 L 599 778 L 599 777 L 598 776 L 598 771 L 597 770 L 597 768 L 596 767 L 596 766 L 597 765 L 596 764 L 596 763 L 595 762 L 595 757 L 594 756 L 594 755 L 595 754 L 595 753 L 594 752 L 595 751 L 594 750 L 594 749 L 595 748 L 595 746 L 594 745 L 595 744 L 594 743 L 595 742 L 595 740 L 596 739 L 595 738 L 596 737 L 596 734 L 597 733 L 597 732 L 598 731 L 598 730 L 599 729 L 599 727 L 600 726 L 600 725 L 602 723 L 601 722 L 604 719 L 604 718 L 605 717 L 606 718 L 606 717 L 605 716 L 608 713 L 609 713 L 609 711 L 610 710 L 610 709 L 611 708 L 613 708 L 614 707 L 614 706 L 615 705 L 615 704 L 616 703 L 617 703 L 623 697 L 624 697 L 627 694 L 628 694 L 629 693 L 629 692 L 630 691 L 631 691 L 631 690 L 633 688 L 634 688 L 637 685 L 638 685 L 645 678 L 646 678 L 649 675 L 650 675 L 653 672 L 654 672 L 655 671 L 656 671 L 660 667 L 660 666 L 661 665 L 662 665 L 663 664 L 664 664 L 664 663 L 665 662 L 666 662 L 666 661 L 667 660 L 668 660 L 668 659 L 669 658 L 670 659 L 670 658 L 671 657 L 672 657 L 676 653 L 677 653 L 687 643 L 688 643 L 688 642 L 689 641 L 690 642 L 690 641 L 692 639 L 692 638 L 693 637 L 694 637 L 695 636 L 695 634 L 697 632 L 698 632 L 706 624 L 706 623 L 708 621 L 709 621 L 709 620 L 717 612 L 717 611 L 718 610 L 719 610 L 719 609 L 720 608 L 720 607 L 723 604 L 724 604 L 725 603 L 725 602 L 727 600 L 728 600 L 728 599 L 731 596 L 731 595 L 734 592 L 734 591 L 735 590 L 735 589 L 738 586 L 738 585 L 741 582 L 742 582 L 743 581 L 743 578 L 749 572 L 749 571 L 751 569 L 751 568 L 752 567 L 752 566 L 755 563 L 755 562 L 756 561 L 756 559 L 763 552 L 762 551 L 764 549 L 764 547 L 766 545 L 766 544 L 769 541 L 769 540 L 770 539 L 770 538 L 772 536 L 772 535 L 773 534 L 773 532 L 775 530 L 776 530 L 776 529 L 777 528 L 777 527 L 778 526 L 778 524 L 780 522 L 780 521 L 781 520 L 781 518 L 782 517 L 782 515 L 783 514 L 784 515 L 784 512 L 785 511 L 785 510 L 786 509 L 786 508 L 787 507 L 787 506 L 789 504 L 788 503 L 789 502 L 789 501 L 790 500 L 790 498 L 792 496 L 792 495 L 793 494 L 793 492 L 794 491 L 794 489 L 795 488 L 795 487 L 796 486 L 796 483 L 797 482 L 797 481 L 798 480 L 798 479 L 799 478 L 798 477 L 800 475 L 800 472 L 802 470 L 802 468 L 803 467 L 803 466 L 804 465 L 804 461 L 806 459 L 805 458 L 806 457 L 806 455 L 807 454 L 807 453 L 808 452 L 808 448 L 809 447 L 809 446 L 810 445 L 810 443 L 811 442 L 811 440 L 810 439 L 811 438 L 811 436 L 812 435 L 812 434 L 813 433 L 813 430 L 814 429 L 813 428 L 814 427 L 814 425 L 816 423 L 816 420 L 817 419 L 817 417 L 818 416 L 817 415 L 817 414 L 818 413 L 818 411 L 819 410 L 819 408 L 820 407 L 820 404 L 822 402 L 821 401 L 822 400 L 822 399 L 823 398 L 822 397 L 822 396 L 824 394 L 823 393 L 824 392 L 824 391 L 825 390 L 825 389 L 824 388 L 825 387 L 826 387 L 826 385 L 827 384 L 827 380 L 828 379 L 828 377 L 829 376 L 829 375 L 831 373 L 831 371 L 832 370 L 832 369 L 834 367 L 834 366 L 835 365 L 835 364 L 836 363 L 835 362 L 838 359 L 839 359 L 839 356 L 841 354 L 842 354 L 844 352 L 844 351 L 845 350 L 846 350 L 846 349 L 847 348 L 850 348 L 854 344 L 856 344 L 858 342 L 860 342 L 861 341 L 863 341 L 865 339 L 866 340 L 866 339 L 867 338 L 868 338 L 869 337 L 870 338 L 871 337 L 876 337 L 877 336 L 882 336 L 883 335 L 885 335 L 886 334 L 887 335 L 888 334 L 890 334 L 891 335 L 892 334 L 895 334 L 896 333 L 897 334 L 899 334 L 900 333 L 904 333 L 905 332 L 906 333 L 907 333 L 908 332 L 909 333 L 910 333 L 911 332 L 913 334 L 914 333 L 919 333 L 920 332 L 928 332 L 929 333 L 930 332 L 931 333 L 932 332 L 936 332 L 937 331 L 938 332 L 939 332 L 940 331 L 942 331 L 943 330 L 943 329 L 942 328 L 943 327 L 945 327 L 946 328 L 949 328 L 950 329 L 952 329 L 953 330 L 956 330 L 957 331 L 959 331 L 960 332 L 963 332 L 964 333 L 969 333 L 970 334 L 976 334 L 975 333 L 974 333 L 973 332 L 972 332 L 970 330 L 969 330 L 968 329 L 967 329 L 966 328 L 965 328 L 964 327 L 963 327 L 962 326 L 961 326 L 960 325 L 959 325 L 958 324 L 957 324 L 956 323 L 955 323 L 953 321 L 955 319 L 956 319 L 956 316 L 955 315 L 955 313 L 954 312 L 955 311 L 954 310 L 954 309 L 953 308 L 953 306 L 952 305 L 952 304 L 950 302 L 950 300 L 949 299 L 949 298 L 948 297 L 948 294 L 947 294 L 946 293 L 946 291 L 945 290 L 945 288 L 944 287 L 945 286 L 943 284 L 944 283 L 943 282 L 943 281 L 942 280 L 942 277 L 941 276 L 942 275 L 942 274 L 941 273 L 942 272 L 941 271 L 942 270 L 942 269 L 941 270 L 940 269 L 940 268 L 941 267 L 942 267 L 941 266 L 941 264 L 942 263 L 942 261 L 943 260 L 944 261 L 944 262 L 944 260 L 945 259 L 944 258 L 945 257 L 945 256 L 946 255 L 946 252 L 948 250 L 948 248 L 949 247 L 949 246 L 953 242 L 953 239 L 955 237 L 955 236 L 957 234 L 957 233 L 960 230 L 960 228 L 961 227 L 962 227 L 964 225 L 963 224 L 965 222 L 967 222 L 967 221 L 969 219 L 969 218 L 970 217 L 970 216 L 971 215 L 971 214 L 972 213 L 973 213 L 973 212 L 975 210 L 975 209 L 977 207 L 979 207 L 979 206 L 980 205 L 980 203 L 981 202 L 982 202 L 982 200 L 983 199 L 983 197 L 984 196 L 984 195 L 983 196 L 982 195 L 982 194 L 981 194 L 980 195 L 979 195 L 978 194 L 980 192 L 981 192 L 982 191 L 983 191 L 984 190 L 985 190 L 986 189 L 987 189 L 988 188 L 989 188 L 991 186 L 992 186 L 993 185 L 994 185 L 995 184 L 996 184 L 998 182 L 999 182 L 1000 181 L 1001 181 L 1002 180 L 1000 180 L 999 181 L 996 181 L 995 182 L 992 182 L 991 183 L 988 183 L 987 184 L 984 184 L 983 185 L 980 185 L 979 186 L 976 186 L 975 187 L 973 187 L 972 188 L 969 188 L 968 187 L 969 186 L 971 186 L 972 185 L 973 185 L 975 183 L 981 183 L 978 183 L 977 182 L 976 183 L 974 181 L 951 181 L 950 180 L 944 180 L 943 181 L 941 181 L 940 180 L 937 180 L 936 181 L 933 181 L 932 180 L 931 180 L 930 181 L 928 181 L 927 182 L 926 181 L 915 181 L 914 180 L 913 181 L 910 181 L 909 182 L 908 181 L 906 181 L 905 182 L 888 182 L 887 181 L 886 182 L 885 182 L 884 181 L 883 182 L 882 181 L 881 181 L 880 182 L 879 182 L 878 181 L 877 182 L 872 182 L 870 180 L 869 181 L 868 181 L 867 180 L 866 181 L 865 180 L 864 181 L 863 180 L 862 180 L 861 181 L 860 180 L 857 180 L 856 179 L 855 180 L 854 179 L 852 179 L 851 178 L 848 178 L 847 177 L 846 178 L 845 177 L 845 176 L 844 177 L 843 176 L 840 176 L 838 174 L 836 174 L 835 173 L 835 172 L 834 173 L 832 171 L 831 172 L 824 165 L 824 164 L 822 162 L 821 162 L 820 161 L 820 160 L 818 158 L 819 157 L 817 155 L 817 154 L 813 150 L 813 148 L 812 147 L 812 146 L 811 145 L 811 144 L 809 142 L 809 141 L 808 140 L 808 138 L 805 135 L 806 134 L 805 134 L 804 133 L 804 129 L 801 126 L 801 125 L 800 124 L 800 122 L 799 121 L 799 119 L 797 117 L 797 116 L 796 115 L 796 113 L 795 112 L 795 111 L 794 110 L 794 109 L 792 107 L 792 106 L 791 105 L 791 104 L 790 103 L 790 101 L 789 101 L 788 100 L 788 99 L 786 97 L 786 96 L 782 92 L 782 90 L 781 89 L 781 88 L 780 88 L 779 87 L 779 86 L 778 85 L 778 84 L 776 82 L 776 81 L 775 80 L 774 80 L 773 79 L 773 78 L 772 77 L 772 76 L 770 74 L 770 73 L 764 67 L 764 66 L 762 64 L 762 63 L 760 61 L 759 62 L 758 61 L 758 60 L 755 57 L 755 56 L 753 54 L 753 53 L 752 52 L 752 51 L 751 51 L 746 46 L 746 45 L 745 45 L 744 44 L 744 43 L 742 41 L 742 40 L 741 40 L 740 39 L 740 38 L 736 34 L 736 32 L 735 33 L 734 32 L 734 30 L 733 30 L 731 28 L 731 27 L 730 26 L 730 25 L 725 20 L 726 19 L 724 19 L 723 18 L 724 17 L 723 16 L 723 15 L 724 14 L 723 14 L 722 13 L 722 11 L 721 11 L 720 10 L 721 9 L 720 8 L 721 7 L 722 7 L 721 6 L 720 6 L 719 5 L 720 4 L 720 3 L 719 2 L 719 1 L 718 0 Z"/>
</g>
</svg>